<mxfile host="Electron" modified="2023-11-16T14:21:38.425Z" agent="Mozilla/5.0 (Windows NT 10.0; Win64; x64) AppleWebKit/537.36 (KHTML, like Gecko) draw.io/22.0.2 Chrome/114.0.5735.289 Electron/25.8.4 Safari/537.36" etag="lAK-AlGkBfy47uTiB7D8" version="22.0.2" type="device">
  <diagram name="PÃ¡gina-1" id="mZXZW6XSm8q9uRBMEDO8">
    <mxGraphModel dx="1036" dy="606" grid="1" gridSize="10" guides="1" tooltips="1" connect="1" arrows="1" fold="1" page="1" pageScale="1" pageWidth="827" pageHeight="1169" math="0" shadow="0">
      <root>
        <mxCell id="0" />
        <mxCell id="1" parent="0" />
        <mxCell id="iWLaraLpnDd6tMQTU9as-20" value="A: Queued&lt;br&gt;B: Segmented&lt;br&gt;C: Skeletonized&lt;br&gt;D: Restored&lt;span style=&quot;white-space: pre;&quot;&gt;&#x9;&lt;/span&gt;&lt;br&gt;E: Finished&lt;br&gt;F: Failed" style="text;html=1;align=left;verticalAlign=middle;resizable=0;points=[];autosize=1;strokeColor=none;fillColor=none;" parent="1" vertex="1">
          <mxGeometry x="510" y="250" width="110" height="100" as="geometry" />
        </mxCell>
        <mxCell id="iWLaraLpnDd6tMQTU9as-39" style="edgeStyle=orthogonalEdgeStyle;rounded=0;orthogonalLoop=1;jettySize=auto;html=1;entryX=1;entryY=0.5;entryDx=0;entryDy=0;" parent="1" source="iWLaraLpnDd6tMQTU9as-31" target="iWLaraLpnDd6tMQTU9as-34" edge="1">
          <mxGeometry relative="1" as="geometry" />
        </mxCell>
        <mxCell id="PzPOq25JC9K3W87HpZZO-1" style="edgeStyle=orthogonalEdgeStyle;orthogonalLoop=1;jettySize=auto;html=1;exitX=1;exitY=0;exitDx=0;exitDy=0;entryX=1;entryY=1;entryDx=0;entryDy=0;curved=1;" parent="1" source="iWLaraLpnDd6tMQTU9as-31" target="iWLaraLpnDd6tMQTU9as-32" edge="1">
          <mxGeometry relative="1" as="geometry">
            <Array as="points">
              <mxPoint x="380" y="366" />
              <mxPoint x="380" y="214" />
            </Array>
          </mxGeometry>
        </mxCell>
        <mxCell id="iWLaraLpnDd6tMQTU9as-31" value="B" style="ellipse;whiteSpace=wrap;html=1;aspect=fixed;" parent="1" vertex="1">
          <mxGeometry x="340" y="360" width="40" height="40" as="geometry" />
        </mxCell>
        <mxCell id="PzPOq25JC9K3W87HpZZO-3" style="edgeStyle=orthogonalEdgeStyle;orthogonalLoop=1;jettySize=auto;html=1;exitX=1;exitY=0;exitDx=0;exitDy=0;entryX=1;entryY=0;entryDx=0;entryDy=0;curved=1;" parent="1" source="iWLaraLpnDd6tMQTU9as-32" target="iWLaraLpnDd6tMQTU9as-36" edge="1">
          <mxGeometry relative="1" as="geometry" />
        </mxCell>
        <mxCell id="iWLaraLpnDd6tMQTU9as-32" value="F" style="ellipse;whiteSpace=wrap;html=1;aspect=fixed;" parent="1" vertex="1">
          <mxGeometry x="290" y="180" width="40" height="40" as="geometry" />
        </mxCell>
        <mxCell id="iWLaraLpnDd6tMQTU9as-40" style="edgeStyle=orthogonalEdgeStyle;orthogonalLoop=1;jettySize=auto;html=1;entryX=0.5;entryY=1;entryDx=0;entryDy=0;curved=1;" parent="1" source="iWLaraLpnDd6tMQTU9as-34" target="iWLaraLpnDd6tMQTU9as-37" edge="1">
          <mxGeometry relative="1" as="geometry" />
        </mxCell>
        <mxCell id="iWLaraLpnDd6tMQTU9as-43" style="edgeStyle=orthogonalEdgeStyle;orthogonalLoop=1;jettySize=auto;html=1;curved=1;" parent="1" source="iWLaraLpnDd6tMQTU9as-34" edge="1">
          <mxGeometry relative="1" as="geometry">
            <mxPoint x="290" y="200" as="targetPoint" />
            <Array as="points">
              <mxPoint x="170" y="380" />
              <mxPoint x="170" y="200" />
            </Array>
          </mxGeometry>
        </mxCell>
        <mxCell id="iWLaraLpnDd6tMQTU9as-34" value="C" style="ellipse;whiteSpace=wrap;html=1;aspect=fixed;" parent="1" vertex="1">
          <mxGeometry x="240" y="360" width="40" height="40" as="geometry" />
        </mxCell>
        <mxCell id="iWLaraLpnDd6tMQTU9as-35" value="E" style="ellipse;whiteSpace=wrap;html=1;aspect=fixed;" parent="1" vertex="1">
          <mxGeometry x="290" y="270" width="40" height="40" as="geometry" />
        </mxCell>
        <mxCell id="iWLaraLpnDd6tMQTU9as-48" style="edgeStyle=orthogonalEdgeStyle;orthogonalLoop=1;jettySize=auto;html=1;entryX=1;entryY=1;entryDx=0;entryDy=0;curved=1;" parent="1" source="iWLaraLpnDd6tMQTU9as-36" target="iWLaraLpnDd6tMQTU9as-31" edge="1">
          <mxGeometry relative="1" as="geometry">
            <Array as="points">
              <mxPoint x="420" y="394" />
            </Array>
          </mxGeometry>
        </mxCell>
        <mxCell id="PzPOq25JC9K3W87HpZZO-2" style="edgeStyle=orthogonalEdgeStyle;orthogonalLoop=1;jettySize=auto;html=1;exitX=0;exitY=0;exitDx=0;exitDy=0;entryX=1;entryY=1;entryDx=0;entryDy=0;curved=1;" parent="1" source="iWLaraLpnDd6tMQTU9as-36" target="iWLaraLpnDd6tMQTU9as-32" edge="1">
          <mxGeometry relative="1" as="geometry">
            <mxPoint x="411.7578643762689" y="275.85786437626894" as="sourcePoint" />
            <mxPoint x="330.04213562373104" y="214.14213562373106" as="targetPoint" />
            <Array as="points">
              <mxPoint x="370" y="276" />
              <mxPoint x="370" y="214" />
            </Array>
          </mxGeometry>
        </mxCell>
        <mxCell id="iWLaraLpnDd6tMQTU9as-36" value="A" style="ellipse;whiteSpace=wrap;html=1;aspect=fixed;" parent="1" vertex="1">
          <mxGeometry x="400" y="270" width="40" height="40" as="geometry" />
        </mxCell>
        <mxCell id="iWLaraLpnDd6tMQTU9as-41" style="edgeStyle=orthogonalEdgeStyle;rounded=0;orthogonalLoop=1;jettySize=auto;html=1;exitX=1;exitY=0.5;exitDx=0;exitDy=0;entryX=0;entryY=0.5;entryDx=0;entryDy=0;" parent="1" source="iWLaraLpnDd6tMQTU9as-37" target="iWLaraLpnDd6tMQTU9as-35" edge="1">
          <mxGeometry relative="1" as="geometry" />
        </mxCell>
        <mxCell id="iWLaraLpnDd6tMQTU9as-42" style="edgeStyle=orthogonalEdgeStyle;orthogonalLoop=1;jettySize=auto;html=1;entryX=0;entryY=0.5;entryDx=0;entryDy=0;curved=1;" parent="1" source="iWLaraLpnDd6tMQTU9as-37" target="iWLaraLpnDd6tMQTU9as-32" edge="1">
          <mxGeometry relative="1" as="geometry">
            <Array as="points">
              <mxPoint x="180" y="290" />
              <mxPoint x="180" y="200" />
            </Array>
          </mxGeometry>
        </mxCell>
        <mxCell id="iWLaraLpnDd6tMQTU9as-37" value="D" style="ellipse;whiteSpace=wrap;html=1;aspect=fixed;" parent="1" vertex="1">
          <mxGeometry x="190" y="270" width="40" height="40" as="geometry" />
        </mxCell>
        <mxCell id="iWLaraLpnDd6tMQTU9as-49" value="" style="endArrow=classic;html=1;rounded=0;entryX=1;entryY=0.5;entryDx=0;entryDy=0;" parent="1" target="iWLaraLpnDd6tMQTU9as-36" edge="1">
          <mxGeometry width="50" height="50" relative="1" as="geometry">
            <mxPoint x="490" y="290" as="sourcePoint" />
            <mxPoint x="320" y="300" as="targetPoint" />
          </mxGeometry>
        </mxCell>
      </root>
    </mxGraphModel>
  </diagram>
</mxfile>
